<?xml version="1.0" encoding="UTF-8" standalone="no"?>
<!DOCTYPE svg PUBLIC "-//W3C//DTD SVG 1.1//EN" "http://www.w3.org/Graphics/SVG/1.1/DTD/svg11.dtd">
<svg width="100%" height="100%" viewBox="0 0 1591 429" version="1.1" xmlns="http://www.w3.org/2000/svg" xmlns:xlink="http://www.w3.org/1999/xlink" xml:space="preserve" xmlns:serif="http://www.serif.com/" style="fill-rule:evenodd;clip-rule:evenodd;stroke-linejoin:round;stroke-miterlimit:2;">
    <g id="Hintergrund" transform="matrix(1.553711,0,0,1.553711,0,0)">
        <path d="M147.564,1.277C150.415,1.789 199.233,5.278 230.2,55.684C248.006,84.669 248.358,111.024 248.945,117.418C245.347,119.728 244.518,125.013 235.208,138.313C208.786,176.055 175.37,197.151 169.21,201.039C120.019,232.094 69.969,231.363 57.225,227.598C56.039,222.825 48.481,192.401 50.463,166.497C56.729,84.595 101.751,40.423 102.052,40.087C130.845,7.88 143.367,7.017 147.564,1.277Z" style="fill:rgb(140,145,156);"/>
        <path d="M248.945,117.418C248.893,121.491 256.07,201.783 172.783,253.959C126.289,283.085 85.931,274.203 79.586,273.131C64.586,251.977 61.519,242.3 57.225,227.598C69.969,231.363 120.019,232.094 169.21,201.039C175.37,197.151 208.786,176.055 235.208,138.313C244.518,125.013 245.347,119.728 248.945,117.418Z" style="fill:rgb(96,104,119);"/>
        <path d="M147.564,1.277C143.367,7.017 130.845,7.88 102.052,40.087C101.751,40.423 56.729,84.595 50.463,166.497C48.481,192.401 56.039,222.825 57.225,227.598C61.519,242.3 64.586,251.977 79.586,273.131C76.049,272.388 59.448,270.128 38.544,254.451C37.743,248.528 35.544,249.209 28.612,221.467C27.592,214.012 12.428,149.467 46.168,78.348C68.912,30.409 89.708,19.166 97.322,8.239C100.81,6.164 112.738,-0.932 147.564,1.277Z" style="fill:rgb(1,210,207);"/>
        <path d="M97.322,8.239C89.708,19.166 68.912,30.409 46.168,78.348C12.428,149.467 27.592,214.012 28.612,221.467C7.634,209.035 8.032,208.43 6.111,207.54C-14.105,133.615 26.971,58.566 59.913,30.968C62.598,28.719 84.045,10.751 97.322,8.239Z" style="fill:rgb(140,145,156);"/>
        <path d="M6.111,207.54C8.032,208.43 7.634,209.035 28.612,221.467C35.544,249.209 37.743,248.528 38.544,254.451C34.959,251.628 14.878,235.815 6.111,207.54Z" style="fill:rgb(91,101,117);"/>
    </g>
    <g transform="matrix(1,0,0,1,537,-427)">
        <g transform="matrix(260,0,0,260,0,666)">
            <path d="M0.113,0.01C0.1,0.01 0.091,0.008 0.084,0.005C0.078,0.001 0.074,-0.005 0.072,-0.012C0.07,-0.019 0.069,-0.027 0.069,-0.036L0.069,-0.643C0.069,-0.651 0.07,-0.659 0.072,-0.666C0.075,-0.673 0.079,-0.678 0.086,-0.682C0.093,-0.686 0.102,-0.688 0.114,-0.688L0.333,-0.688C0.365,-0.688 0.394,-0.683 0.421,-0.673C0.448,-0.663 0.472,-0.649 0.492,-0.629C0.513,-0.61 0.528,-0.586 0.54,-0.558C0.551,-0.53 0.557,-0.498 0.557,-0.461C0.557,-0.425 0.551,-0.393 0.54,-0.365C0.528,-0.337 0.512,-0.314 0.492,-0.294C0.471,-0.275 0.447,-0.261 0.42,-0.251C0.393,-0.241 0.364,-0.236 0.332,-0.236L0.16,-0.236L0.16,-0.035C0.16,-0.026 0.158,-0.018 0.156,-0.011C0.154,-0.004 0.15,0.001 0.143,0.005C0.137,0.008 0.127,0.01 0.113,0.01ZM0.16,-0.327L0.333,-0.327C0.359,-0.327 0.383,-0.332 0.403,-0.342C0.423,-0.353 0.439,-0.368 0.45,-0.388C0.462,-0.409 0.467,-0.434 0.467,-0.463C0.467,-0.491 0.462,-0.515 0.451,-0.535C0.44,-0.555 0.424,-0.57 0.404,-0.581C0.384,-0.592 0.36,-0.597 0.332,-0.597L0.16,-0.597L0.16,-0.327Z" style="fill-rule:nonzero;"/>
        </g>
        <g transform="matrix(260,0,0,260,156.26,666)">
            <path d="M0.121,0.011C0.108,0.011 0.098,0.009 0.092,0.005C0.085,0.001 0.081,-0.004 0.079,-0.011C0.077,-0.018 0.076,-0.027 0.076,-0.036L0.076,-0.643C0.076,-0.66 0.08,-0.672 0.087,-0.678C0.094,-0.685 0.106,-0.688 0.124,-0.688L0.526,-0.688C0.535,-0.688 0.543,-0.687 0.55,-0.685C0.556,-0.683 0.561,-0.678 0.565,-0.672C0.569,-0.665 0.57,-0.655 0.57,-0.642C0.57,-0.629 0.568,-0.619 0.565,-0.613C0.561,-0.606 0.556,-0.602 0.549,-0.6C0.542,-0.598 0.534,-0.597 0.525,-0.597L0.166,-0.597L0.166,-0.39L0.416,-0.39C0.425,-0.39 0.433,-0.389 0.439,-0.387C0.445,-0.385 0.45,-0.381 0.454,-0.375C0.457,-0.369 0.459,-0.359 0.459,-0.347C0.459,-0.335 0.457,-0.326 0.454,-0.32C0.45,-0.314 0.445,-0.31 0.439,-0.308C0.432,-0.307 0.424,-0.306 0.414,-0.306L0.166,-0.306L0.166,-0.08L0.526,-0.08C0.535,-0.08 0.543,-0.079 0.55,-0.077C0.556,-0.075 0.561,-0.071 0.565,-0.064C0.569,-0.058 0.57,-0.048 0.57,-0.035C0.57,-0.022 0.568,-0.012 0.565,-0.006C0.561,0.001 0.556,0.005 0.549,0.007C0.542,0.009 0.534,0.011 0.525,0.011L0.121,0.011Z" style="fill-rule:nonzero;"/>
        </g>
        <g transform="matrix(260,0,0,260,318.305,666)">
            <path d="M0.099,0.01C0.087,0.01 0.078,0.008 0.072,0.004C0.065,-0.001 0.061,-0.007 0.059,-0.015C0.057,-0.023 0.056,-0.033 0.056,-0.043L0.056,-0.637C0.056,-0.647 0.057,-0.656 0.059,-0.663C0.062,-0.671 0.066,-0.677 0.072,-0.681C0.079,-0.686 0.088,-0.688 0.1,-0.688L0.379,-0.688C0.416,-0.688 0.449,-0.68 0.477,-0.663C0.506,-0.646 0.528,-0.623 0.544,-0.595C0.56,-0.566 0.567,-0.535 0.567,-0.501C0.567,-0.484 0.565,-0.466 0.561,-0.45C0.556,-0.433 0.549,-0.417 0.54,-0.403C0.531,-0.389 0.52,-0.377 0.507,-0.367C0.525,-0.357 0.54,-0.342 0.553,-0.324C0.565,-0.306 0.575,-0.286 0.582,-0.264C0.589,-0.242 0.592,-0.219 0.592,-0.195C0.591,-0.166 0.586,-0.139 0.576,-0.114C0.566,-0.089 0.551,-0.067 0.533,-0.049C0.514,-0.03 0.493,-0.016 0.468,-0.005C0.444,0.005 0.417,0.01 0.389,0.01L0.099,0.01ZM0.145,-0.076L0.379,-0.076C0.405,-0.076 0.427,-0.081 0.446,-0.091C0.465,-0.101 0.479,-0.115 0.489,-0.135C0.499,-0.154 0.504,-0.178 0.504,-0.206C0.504,-0.23 0.5,-0.249 0.493,-0.264C0.487,-0.278 0.478,-0.289 0.467,-0.297C0.456,-0.305 0.444,-0.311 0.431,-0.314C0.418,-0.317 0.405,-0.319 0.392,-0.319C0.38,-0.32 0.369,-0.32 0.359,-0.32L0.297,-0.32C0.284,-0.32 0.275,-0.323 0.269,-0.33C0.263,-0.336 0.26,-0.347 0.26,-0.362C0.26,-0.376 0.263,-0.386 0.269,-0.392C0.276,-0.398 0.286,-0.401 0.299,-0.401L0.36,-0.401C0.371,-0.401 0.383,-0.401 0.396,-0.402C0.409,-0.402 0.423,-0.405 0.435,-0.41C0.448,-0.415 0.459,-0.424 0.467,-0.436C0.476,-0.449 0.48,-0.468 0.48,-0.492C0.48,-0.529 0.47,-0.557 0.45,-0.575C0.43,-0.592 0.397,-0.601 0.351,-0.601L0.145,-0.601L0.145,-0.076Z" style="fill-rule:nonzero;"/>
        </g>
        <g transform="matrix(260,0,0,260,484.25,666)">
            <path d="M0.099,0.01C0.087,0.01 0.078,0.008 0.072,0.004C0.065,-0.001 0.061,-0.007 0.059,-0.015C0.057,-0.023 0.056,-0.033 0.056,-0.043L0.056,-0.637C0.056,-0.647 0.057,-0.656 0.059,-0.663C0.062,-0.671 0.066,-0.677 0.072,-0.681C0.079,-0.686 0.088,-0.688 0.1,-0.688L0.379,-0.688C0.416,-0.688 0.449,-0.68 0.477,-0.663C0.506,-0.646 0.528,-0.623 0.544,-0.595C0.56,-0.566 0.567,-0.535 0.567,-0.501C0.567,-0.484 0.565,-0.466 0.561,-0.45C0.556,-0.433 0.549,-0.417 0.54,-0.403C0.531,-0.389 0.52,-0.377 0.507,-0.367C0.525,-0.357 0.54,-0.342 0.553,-0.324C0.565,-0.306 0.575,-0.286 0.582,-0.264C0.589,-0.242 0.592,-0.219 0.592,-0.195C0.591,-0.166 0.586,-0.139 0.576,-0.114C0.566,-0.089 0.551,-0.067 0.533,-0.049C0.514,-0.03 0.493,-0.016 0.468,-0.005C0.444,0.005 0.417,0.01 0.389,0.01L0.099,0.01ZM0.145,-0.076L0.379,-0.076C0.405,-0.076 0.427,-0.081 0.446,-0.091C0.465,-0.101 0.479,-0.115 0.489,-0.135C0.499,-0.154 0.504,-0.178 0.504,-0.206C0.504,-0.23 0.5,-0.249 0.493,-0.264C0.487,-0.278 0.478,-0.289 0.467,-0.297C0.456,-0.305 0.444,-0.311 0.431,-0.314C0.418,-0.317 0.405,-0.319 0.392,-0.319C0.38,-0.32 0.369,-0.32 0.359,-0.32L0.297,-0.32C0.284,-0.32 0.275,-0.323 0.269,-0.33C0.263,-0.336 0.26,-0.347 0.26,-0.362C0.26,-0.376 0.263,-0.386 0.269,-0.392C0.276,-0.398 0.286,-0.401 0.299,-0.401L0.36,-0.401C0.371,-0.401 0.383,-0.401 0.396,-0.402C0.409,-0.402 0.423,-0.405 0.435,-0.41C0.448,-0.415 0.459,-0.424 0.467,-0.436C0.476,-0.449 0.48,-0.468 0.48,-0.492C0.48,-0.529 0.47,-0.557 0.45,-0.575C0.43,-0.592 0.397,-0.601 0.351,-0.601L0.145,-0.601L0.145,-0.076Z" style="fill-rule:nonzero;"/>
        </g>
        <g transform="matrix(260,0,0,260,650.195,666)">
            <path d="M0.112,0.011C0.098,0.011 0.088,0.009 0.082,0.005C0.075,0.001 0.07,-0.004 0.068,-0.011C0.066,-0.018 0.065,-0.026 0.065,-0.035L0.065,-0.642C0.065,-0.652 0.066,-0.66 0.068,-0.667C0.07,-0.673 0.074,-0.679 0.08,-0.682C0.087,-0.686 0.097,-0.688 0.11,-0.688C0.123,-0.688 0.133,-0.686 0.139,-0.682C0.145,-0.679 0.15,-0.673 0.152,-0.667C0.154,-0.66 0.155,-0.652 0.155,-0.642L0.155,-0.073L0.49,-0.073C0.498,-0.073 0.506,-0.073 0.512,-0.071C0.518,-0.069 0.523,-0.065 0.526,-0.059C0.53,-0.053 0.531,-0.044 0.531,-0.032C0.531,-0.02 0.53,-0.011 0.527,-0.005C0.523,0.001 0.519,0.005 0.513,0.007C0.507,0.009 0.5,0.011 0.491,0.011L0.112,0.011Z" style="fill-rule:nonzero;"/>
        </g>
        <g transform="matrix(260,0,0,260,762.71,666)">
            <path d="M0.587,-0.685C0.601,-0.675 0.609,-0.666 0.61,-0.657C0.612,-0.648 0.609,-0.638 0.6,-0.626L0.365,-0.269L0.365,-0.034C0.365,-0.025 0.364,-0.017 0.362,-0.01C0.36,-0.004 0.356,0.002 0.349,0.005C0.343,0.009 0.333,0.011 0.32,0.011C0.307,0.011 0.297,0.009 0.29,0.005C0.284,0.002 0.28,-0.004 0.278,-0.011C0.275,-0.018 0.274,-0.026 0.274,-0.036L0.274,-0.27L0.038,-0.624C0.03,-0.636 0.027,-0.647 0.029,-0.656C0.031,-0.665 0.039,-0.674 0.053,-0.683C0.063,-0.691 0.071,-0.695 0.078,-0.696C0.085,-0.698 0.092,-0.697 0.098,-0.693C0.104,-0.69 0.109,-0.683 0.115,-0.674L0.319,-0.354L0.524,-0.674C0.53,-0.683 0.535,-0.689 0.541,-0.693C0.547,-0.696 0.553,-0.697 0.561,-0.696C0.568,-0.695 0.577,-0.691 0.587,-0.685Z" style="fill-rule:nonzero;"/>
        </g>
        <g transform="matrix(260,0,0,260,928.59,666)">
        </g>
    </g>
    <g transform="matrix(1,0,0,1,484,-330.966008)">
        <g transform="matrix(120,0,0,120,66,698.14)">
            <path d="M0.392,0.015C0.342,0.015 0.296,0.006 0.254,-0.012C0.212,-0.03 0.176,-0.055 0.145,-0.088C0.114,-0.12 0.091,-0.159 0.074,-0.203C0.057,-0.248 0.049,-0.297 0.049,-0.351C0.049,-0.401 0.058,-0.448 0.075,-0.49C0.092,-0.532 0.116,-0.568 0.147,-0.599C0.179,-0.63 0.216,-0.654 0.259,-0.671C0.302,-0.689 0.349,-0.698 0.401,-0.698C0.422,-0.698 0.444,-0.696 0.467,-0.692C0.489,-0.688 0.511,-0.683 0.532,-0.675C0.554,-0.667 0.573,-0.658 0.589,-0.647C0.601,-0.639 0.612,-0.631 0.621,-0.622C0.63,-0.614 0.635,-0.604 0.636,-0.594C0.636,-0.588 0.635,-0.582 0.633,-0.575C0.63,-0.568 0.626,-0.56 0.621,-0.553C0.613,-0.542 0.605,-0.533 0.597,-0.528C0.589,-0.523 0.581,-0.52 0.573,-0.52C0.568,-0.52 0.563,-0.522 0.556,-0.525C0.549,-0.529 0.54,-0.534 0.528,-0.541C0.52,-0.547 0.509,-0.552 0.495,-0.557C0.481,-0.563 0.466,-0.567 0.449,-0.571C0.432,-0.574 0.415,-0.576 0.397,-0.576C0.352,-0.576 0.312,-0.567 0.279,-0.548C0.245,-0.529 0.218,-0.502 0.199,-0.468C0.18,-0.434 0.171,-0.393 0.171,-0.348C0.171,-0.3 0.181,-0.259 0.2,-0.223C0.219,-0.187 0.245,-0.159 0.279,-0.139C0.313,-0.118 0.352,-0.108 0.396,-0.108C0.411,-0.108 0.427,-0.109 0.442,-0.111C0.458,-0.113 0.473,-0.116 0.488,-0.12C0.503,-0.124 0.517,-0.129 0.529,-0.135L0.529,-0.292L0.388,-0.292C0.378,-0.292 0.37,-0.293 0.362,-0.295C0.354,-0.297 0.348,-0.302 0.344,-0.31C0.34,-0.317 0.338,-0.329 0.338,-0.346C0.338,-0.363 0.34,-0.375 0.345,-0.383C0.349,-0.39 0.355,-0.395 0.363,-0.397C0.371,-0.399 0.38,-0.4 0.389,-0.4L0.593,-0.4C0.61,-0.4 0.623,-0.397 0.631,-0.391C0.639,-0.385 0.644,-0.377 0.647,-0.368C0.65,-0.359 0.651,-0.349 0.651,-0.338L0.651,-0.105C0.651,-0.092 0.644,-0.078 0.632,-0.064C0.619,-0.05 0.6,-0.037 0.577,-0.025C0.561,-0.017 0.544,-0.01 0.524,-0.004C0.504,0.002 0.483,0.006 0.461,0.009C0.439,0.013 0.416,0.015 0.392,0.015Z" style="fill-rule:nonzero;"/>
        </g>
        <g transform="matrix(120,0,0,120,151.38,698.14)">
        </g>
        <g transform="matrix(120,0,0,120,181.08,698.14)">
        </g>
        <g transform="matrix(120,0,0,120,208.98,698.14)">
            <path d="M0.685,-0.075C0.692,-0.062 0.696,-0.051 0.696,-0.041C0.697,-0.032 0.694,-0.023 0.688,-0.016C0.682,-0.009 0.672,-0.002 0.658,0.005C0.637,0.015 0.62,0.018 0.608,0.013C0.596,0.008 0.586,-0.005 0.576,-0.026L0.352,-0.496L0.131,-0.026C0.121,-0.005 0.11,0.007 0.098,0.012C0.086,0.016 0.069,0.014 0.048,0.004C0.034,-0.002 0.024,-0.009 0.018,-0.017C0.012,-0.024 0.01,-0.033 0.011,-0.044C0.012,-0.054 0.015,-0.066 0.022,-0.081L0.297,-0.653C0.303,-0.664 0.311,-0.673 0.321,-0.679C0.331,-0.686 0.342,-0.689 0.353,-0.689C0.361,-0.689 0.369,-0.688 0.376,-0.685C0.383,-0.682 0.389,-0.678 0.395,-0.672C0.4,-0.667 0.405,-0.66 0.409,-0.652L0.685,-0.075ZM0.175,-0.172L0.223,-0.275L0.484,-0.275L0.531,-0.172L0.175,-0.172Z" style="fill-rule:nonzero;"/>
        </g>
        <g transform="matrix(120,0,0,120,293.7,698.14)">
        </g>
        <g transform="matrix(120,0,0,120,323.4,698.14)">
        </g>
        <g transform="matrix(120,0,0,120,353.1,698.14)">
            <path d="M0.115,0.009C0.097,0.009 0.084,0.007 0.076,0.001C0.067,-0.004 0.062,-0.012 0.059,-0.021C0.057,-0.03 0.056,-0.041 0.056,-0.052L0.056,-0.629C0.056,-0.64 0.057,-0.649 0.059,-0.658C0.062,-0.667 0.067,-0.674 0.076,-0.68C0.085,-0.686 0.098,-0.689 0.117,-0.689C0.131,-0.689 0.141,-0.688 0.148,-0.686C0.155,-0.684 0.161,-0.682 0.165,-0.679C0.169,-0.676 0.173,-0.672 0.177,-0.667L0.42,-0.327L0.398,-0.327L0.642,-0.669C0.647,-0.674 0.652,-0.678 0.656,-0.681C0.661,-0.684 0.667,-0.686 0.674,-0.687C0.682,-0.688 0.692,-0.689 0.704,-0.689C0.722,-0.689 0.735,-0.686 0.744,-0.68C0.752,-0.674 0.758,-0.667 0.76,-0.657C0.763,-0.648 0.764,-0.638 0.764,-0.627L0.764,-0.05C0.764,-0.04 0.763,-0.03 0.76,-0.021C0.758,-0.012 0.752,-0.004 0.744,0.001C0.735,0.007 0.721,0.009 0.703,0.009C0.684,0.009 0.671,0.007 0.663,0.001C0.654,-0.005 0.649,-0.012 0.646,-0.022C0.644,-0.031 0.642,-0.041 0.642,-0.052L0.642,-0.481L0.461,-0.218C0.459,-0.215 0.456,-0.211 0.452,-0.207C0.448,-0.203 0.442,-0.199 0.435,-0.196C0.429,-0.193 0.42,-0.191 0.409,-0.191C0.398,-0.191 0.389,-0.193 0.383,-0.196C0.376,-0.199 0.371,-0.203 0.367,-0.207C0.363,-0.211 0.36,-0.215 0.356,-0.219L0.176,-0.48L0.176,-0.05C0.176,-0.04 0.175,-0.03 0.172,-0.021C0.17,-0.012 0.164,-0.004 0.156,0.001C0.147,0.007 0.134,0.009 0.115,0.009Z" style="fill-rule:nonzero;"/>
        </g>
        <g transform="matrix(120,0,0,120,451.44,698.14)">
        </g>
        <g transform="matrix(120,0,0,120,481.14,698.14)">
        </g>
        <g transform="matrix(120,0,0,120,510.84,698.14)">
            <path d="M0.123,0.01C0.105,0.01 0.091,0.007 0.083,0.002C0.074,-0.004 0.069,-0.011 0.067,-0.021C0.065,-0.03 0.064,-0.041 0.064,-0.052L0.064,-0.629C0.064,-0.652 0.068,-0.667 0.077,-0.676C0.086,-0.685 0.103,-0.689 0.127,-0.689L0.516,-0.689C0.528,-0.689 0.538,-0.688 0.547,-0.685C0.556,-0.683 0.563,-0.678 0.569,-0.669C0.574,-0.661 0.577,-0.647 0.577,-0.628C0.577,-0.609 0.574,-0.595 0.568,-0.587C0.563,-0.578 0.555,-0.573 0.546,-0.571C0.537,-0.569 0.527,-0.568 0.515,-0.568L0.184,-0.568L0.184,-0.4L0.413,-0.4C0.424,-0.4 0.434,-0.398 0.442,-0.396C0.45,-0.394 0.456,-0.389 0.461,-0.382C0.466,-0.374 0.468,-0.362 0.468,-0.345C0.468,-0.328 0.466,-0.316 0.461,-0.308C0.456,-0.301 0.45,-0.296 0.441,-0.294C0.432,-0.292 0.422,-0.291 0.411,-0.291L0.184,-0.291L0.184,-0.112L0.516,-0.112C0.528,-0.112 0.538,-0.11 0.547,-0.108C0.556,-0.106 0.563,-0.1 0.569,-0.092C0.574,-0.083 0.577,-0.07 0.577,-0.051C0.577,-0.032 0.574,-0.018 0.568,-0.01C0.563,-0.001 0.555,0.004 0.546,0.007C0.537,0.009 0.527,0.01 0.515,0.01L0.123,0.01Z" style="fill-rule:nonzero;"/>
        </g>
        <g transform="matrix(120,0,0,120,584.82,698.14)">
        </g>
        <g transform="matrix(120,0,0,120,614.52,698.14)">
        </g>
        <g transform="matrix(120,0,0,120,644.22,698.14)">
            <path d="M0.271,0.019C0.241,0.019 0.213,0.016 0.189,0.009C0.165,0.001 0.143,-0.008 0.125,-0.019C0.107,-0.031 0.091,-0.043 0.079,-0.055C0.066,-0.067 0.057,-0.078 0.051,-0.088C0.042,-0.1 0.036,-0.111 0.034,-0.12C0.031,-0.129 0.032,-0.138 0.036,-0.147C0.041,-0.156 0.049,-0.166 0.061,-0.176C0.073,-0.186 0.084,-0.192 0.095,-0.192C0.105,-0.192 0.115,-0.189 0.124,-0.182C0.134,-0.176 0.143,-0.167 0.152,-0.155C0.169,-0.134 0.187,-0.118 0.207,-0.11C0.227,-0.1 0.247,-0.096 0.267,-0.096C0.293,-0.096 0.316,-0.099 0.335,-0.106C0.354,-0.113 0.369,-0.124 0.38,-0.138C0.391,-0.151 0.397,-0.169 0.397,-0.192C0.397,-0.21 0.391,-0.224 0.38,-0.236C0.369,-0.248 0.355,-0.258 0.337,-0.267C0.319,-0.275 0.298,-0.283 0.276,-0.289C0.254,-0.296 0.232,-0.304 0.209,-0.312C0.193,-0.318 0.177,-0.325 0.161,-0.333C0.145,-0.34 0.13,-0.349 0.116,-0.359C0.102,-0.369 0.09,-0.381 0.08,-0.395C0.07,-0.408 0.062,-0.424 0.056,-0.442C0.05,-0.46 0.047,-0.481 0.047,-0.505C0.047,-0.542 0.056,-0.576 0.075,-0.605C0.094,-0.634 0.12,-0.657 0.153,-0.674C0.186,-0.691 0.224,-0.7 0.267,-0.7C0.294,-0.7 0.319,-0.697 0.341,-0.692C0.362,-0.687 0.381,-0.681 0.397,-0.673C0.412,-0.666 0.425,-0.658 0.435,-0.65C0.445,-0.643 0.453,-0.636 0.458,-0.631C0.473,-0.616 0.481,-0.603 0.483,-0.592C0.485,-0.582 0.479,-0.568 0.465,-0.55C0.451,-0.533 0.438,-0.523 0.424,-0.521C0.412,-0.52 0.397,-0.525 0.381,-0.537C0.37,-0.548 0.36,-0.557 0.349,-0.564C0.338,-0.571 0.326,-0.576 0.313,-0.58C0.3,-0.583 0.284,-0.585 0.266,-0.585C0.252,-0.585 0.239,-0.583 0.227,-0.579C0.215,-0.575 0.205,-0.57 0.196,-0.563C0.187,-0.556 0.18,-0.547 0.175,-0.537C0.17,-0.527 0.168,-0.516 0.168,-0.504C0.168,-0.487 0.172,-0.472 0.182,-0.462C0.192,-0.451 0.205,-0.441 0.222,-0.434C0.239,-0.427 0.257,-0.421 0.278,-0.415C0.298,-0.409 0.319,-0.402 0.341,-0.396C0.363,-0.389 0.385,-0.38 0.406,-0.37C0.427,-0.36 0.446,-0.347 0.463,-0.333C0.479,-0.318 0.493,-0.299 0.503,-0.277C0.513,-0.254 0.518,-0.227 0.518,-0.195C0.518,-0.158 0.511,-0.126 0.497,-0.099C0.483,-0.072 0.464,-0.049 0.44,-0.032C0.416,-0.015 0.389,-0.002 0.36,0.007C0.331,0.015 0.301,0.019 0.271,0.019Z" style="fill-rule:nonzero;"/>
        </g>
        <g transform="matrix(120,0,0,120,710.22,698.14)">
        </g>
    </g>
</svg>
