<?xml version="1.0" encoding="UTF-8" standalone="no"?>
<!DOCTYPE svg PUBLIC "-//W3C//DTD SVG 1.1//EN" "http://www.w3.org/Graphics/SVG/1.1/DTD/svg11.dtd">
<svg width="100%" height="100%" viewBox="0 0 388 430" version="1.1" xmlns="http://www.w3.org/2000/svg" xmlns:xlink="http://www.w3.org/1999/xlink" xml:space="preserve" xmlns:serif="http://www.serif.com/" style="fill-rule:evenodd;clip-rule:evenodd;stroke-linejoin:round;stroke-miterlimit:2;">
    <g id="Hintergrund">
        <path d="M229.584,3.171C261.292,8.086 275.275,14.085 294.754,25.014C298.678,27.216 318.896,38.559 338.036,60.917C380.837,110.912 384.113,157.838 386.013,173.551C386.287,176.513 386.561,179.476 386.835,182.438C383.63,184.32 384.456,185.029 379.961,192.764C324.122,288.863 208.298,370.253 91.467,355.601C91.29,355.579 91.302,355.601 89.232,355.592C86.856,346.178 86.56,346.351 86.359,345.54C82.959,331.847 83.64,331.705 83.255,330.542C80.636,322.63 76.403,272.534 78.732,256.529C81.269,239.1 80.304,239.003 80.743,237.54C81.876,233.762 83.707,216.515 84.437,213.486C88.209,197.85 88.053,197.827 88.45,196.488C95.706,172.006 102.13,147.796 124.639,109.58C163.151,44.194 215.267,13.351 221.548,8.571C227.946,3.702 228.97,5.731 229.301,5.139C229.624,4.561 229.261,3.75 229.584,3.171Z" style="fill:rgb(140,145,156);"/>
        <path d="M386.835,182.438C386.809,192.656 386.97,196.978 386.096,209.477C385.115,219.595 385.18,219.581 385.083,220.457C383.8,232.005 376.857,294.473 322.542,351.54C258.483,418.846 192.395,426.068 176.454,428.03C156.969,429.724 148.803,428.861 141.537,428.117C135.213,427.388 134.322,427.706 123.564,425.233C123.289,424.128 123.403,424.147 122.712,423.311C104.782,401.649 92.894,370.963 89.232,355.592C91.302,355.601 91.29,355.579 91.467,355.601C208.298,370.253 324.122,288.863 379.961,192.764C384.456,185.029 383.63,184.32 386.835,182.438Z" style="fill:rgb(96,103,119);"/>
        <path d="M229.584,3.171C229.261,3.75 229.624,4.561 229.301,5.139C228.97,5.731 227.946,3.702 221.548,8.571C215.267,13.351 163.151,44.194 124.639,109.58C102.13,147.796 95.706,172.006 88.45,196.488C88.053,197.827 88.209,197.85 84.437,213.486C83.707,216.515 81.876,233.762 80.743,237.54C80.304,239.003 81.269,239.1 78.732,256.529C76.403,272.534 80.636,322.63 83.255,330.542C83.64,331.705 82.959,331.847 86.359,345.54C86.56,346.351 86.856,346.178 89.232,355.592C92.894,370.963 104.782,401.649 122.712,423.311C123.403,424.147 123.289,424.128 123.564,425.233C119.008,424.274 119.07,424.377 114.543,423.334C87.049,416.997 62.677,398.704 59.225,395.795C59.377,395.058 60.22,395.228 59.712,393.434C59.691,393.361 59.483,392.627 59.44,392.521C53.274,377.121 53.762,376.948 53.163,375.637C50.308,369.391 46.724,352.914 44.148,343.587C43.599,338.866 43.648,338.888 43.555,338.488C41.937,331.576 42.571,331.584 41.5,324.5C35.468,284.606 35.938,257.328 44.343,206.47C48.566,180.917 60.731,148.436 62.569,143.526C65.156,136.621 77.823,108.507 87.438,92.462C117.997,41.469 152.174,15.559 152.035,14.038C152,13.654 151.329,13.533 151.294,13.148C153.856,12.039 167.028,4.947 197.484,2.295L201.526,1.994C207.023,1.905 206.962,1.95 212.483,1.929C217.032,2.108 216.956,2.167 221.513,2.364C225.622,2.709 225.529,2.809 229.584,3.171Z" style="fill:rgb(2,210,207);"/>
        <path d="M151.294,13.148C151.329,13.533 152,13.654 152.035,14.038C152.174,15.559 117.997,41.469 87.438,92.462C77.823,108.507 65.156,136.621 62.569,143.526C60.731,148.436 48.566,180.917 44.343,206.47C35.938,257.328 35.468,284.606 41.5,324.5C42.571,331.584 41.937,331.576 43.555,338.488C43.648,338.888 43.599,338.866 44.148,343.587C42.189,343.255 41.521,342.934 41.309,342.832C12.781,329.119 13.161,323.325 11.5,324.123C10.924,324.399 10.834,325.306 10.258,325.582C8.598,320.387 5.349,310.715 1.997,286.456C1.505,277.946 -0.043,261.266 1.902,240.535C5.079,214.981 13.372,129.731 83.781,57.787C105.373,35.724 138.183,16.632 151.294,13.148Z" style="fill:rgb(139,145,156);"/>
        <path d="M10.258,325.582C10.834,325.306 10.924,324.399 11.5,324.123C13.161,323.325 12.781,329.119 41.309,342.832C41.521,342.934 42.189,343.255 44.148,343.587C46.724,352.914 50.308,369.391 53.163,375.637C53.762,376.948 53.274,377.121 59.44,392.521C59.483,392.627 59.691,393.361 59.712,393.434C60.22,395.228 59.377,395.058 59.225,395.795C33.85,374.343 24.172,362.239 10.258,325.582Z" style="fill:rgb(91,101,117);"/>
    </g>
</svg>
