<?xml version="1.0" encoding="UTF-8" standalone="no"?><!DOCTYPE svg PUBLIC "-//W3C//DTD SVG 1.1//EN" "http://www.w3.org/Graphics/SVG/1.1/DTD/svg11.dtd"><svg width="100%" height="100%" viewBox="0 0 556 658" version="1.1" xmlns="http://www.w3.org/2000/svg" xmlns:xlink="http://www.w3.org/1999/xlink" xml:space="preserve" xmlns:serif="http://www.serif.com/" style="fill-rule:evenodd;clip-rule:evenodd;stroke-linejoin:round;stroke-miterlimit:2;"><g id="Hintergrund"><path d="M313.584,2.173c14.3,2.213 63.849,7.68 108.452,57.744c48.316,54.231 48.773,121.315 48.792,121.522c-3.181,1.872 -2.364,2.575 -6.867,10.325c-55.84,96.099 -171.663,177.489 -288.494,162.837c-0.177,-0.022 -0.166,-0.001 -2.236,-0.009c-2.375,-9.414 -2.671,-9.241 -2.873,-10.053c-3.4,-13.693 -2.719,-13.834 -3.104,-14.997c-2.618,-7.913 -6.851,-58.008 -4.522,-74.013c2.536,-17.429 1.572,-17.526 2.011,-18.989c1.133,-3.778 2.964,-21.025 3.694,-24.054c3.772,-15.637 3.616,-15.659 4.013,-16.999c7.256,-24.481 13.68,-48.691 36.189,-86.907c38.512,-65.386 90.628,-96.229 96.909,-101.009c6.397,-4.868 7.421,-2.84 7.752,-3.432c0.323,-0.578 -0.04,-1.388 0.283,-1.966Z" style="fill:#8c919c;"/><path d="M470.828,181.439c-0.001,0.647 0.488,17.952 -1.745,38.018c-14.889,133.827 -155.76,229.082 -261.519,204.776c-0.275,-1.105 -0.161,-1.086 -0.852,-1.922c-17.93,-21.662 -29.818,-52.349 -33.48,-67.719c2.07,0.008 2.058,-0.013 2.236,0.009c116.831,14.652 232.654,-66.738 288.494,-162.837c4.503,-7.75 3.686,-8.453 6.867,-10.325Z" style="fill:#606777;"/><path d="M313.584,2.173c-0.323,0.578 0.04,1.388 -0.283,1.966c-0.331,0.592 -1.355,-1.437 -7.752,3.432c-6.281,4.78 -58.397,35.623 -96.909,101.009c-22.509,38.216 -28.933,62.426 -36.189,86.907c-0.397,1.34 -0.241,1.362 -4.013,16.999c-0.731,3.029 -2.561,20.276 -3.694,24.054c-0.439,1.463 0.526,1.56 -2.011,18.989c-2.329,16.005 1.904,66.1 4.522,74.013c0.385,1.163 -0.296,1.304 3.104,14.997c0.202,0.812 0.498,0.638 2.873,10.053c3.662,15.37 15.55,46.057 33.48,67.719c0.692,0.835 0.577,0.816 0.852,1.922c-4.556,-0.959 -4.494,-0.856 -9.021,-1.899c-27.494,-6.337 -51.866,-24.629 -55.318,-27.538c0.152,-0.737 0.995,-0.568 0.487,-2.361c-0.021,-0.073 -0.229,-0.807 -0.271,-0.914c-6.166,-15.399 -5.679,-15.573 -6.278,-16.883c-2.855,-6.246 -6.439,-22.724 -9.014,-32.05c-0.549,-4.721 -0.5,-4.699 -0.593,-5.099c-1.618,-6.912 -0.984,-6.904 -2.055,-13.988c-6.031,-39.894 -5.562,-67.172 2.843,-118.03c4.223,-25.553 16.388,-58.034 18.227,-62.944c2.586,-6.906 15.253,-35.019 24.868,-51.064c30.559,-50.993 64.736,-76.903 64.597,-78.424c-0.035,-0.385 -0.706,-0.506 -0.741,-0.89c25.532,-11.051 49.458,-12.52 78.29,-9.975Z" style="fill:#02d2cf;"/><path d="M235.294,12.148c0.035,0.385 0.706,0.506 0.741,0.89c0.139,1.521 -34.038,27.431 -64.597,78.424c-9.615,16.045 -22.282,44.159 -24.868,51.064c-1.839,4.909 -14.003,37.391 -18.227,62.944c-8.405,50.858 -8.874,78.136 -2.843,118.03c1.071,7.084 0.437,7.076 2.055,13.988c0.094,0.4 0.044,0.378 0.593,5.099c-1.959,-0.332 -2.628,-0.653 -2.84,-0.755c-28.527,-13.713 -28.148,-19.507 -29.809,-18.709c-0.576,0.277 -0.666,1.183 -1.242,1.46c-25.288,-79.162 1.935,-199.703 78.602,-272.684c20.501,-19.515 50.444,-36.563 62.434,-39.75Z" style="fill:#8b919c;"/><path d="M94.258,324.582c0.576,-0.277 0.666,-1.183 1.242,-1.46c1.661,-0.798 1.281,4.996 29.809,18.709c0.212,0.102 0.881,0.423 2.84,0.755c2.576,9.326 6.16,25.804 9.014,32.05c0.599,1.311 0.111,1.484 6.278,16.883c0.043,0.107 0.251,0.84 0.271,0.914c0.508,1.794 -0.335,1.624 -0.487,2.361c-25.375,-21.452 -35.052,-33.556 -48.967,-70.213Z" style="fill:#5b6575;"/></g><g transform="matrix(144,0,0,144,18,584.708894)"><path d="M0.113,0.01c-0.013,0 -0.023,-0.002 -0.029,-0.006c-0.006,-0.004 -0.011,-0.009 -0.012,-0.016c-0.002,-0.007 -0.003,-0.015 -0.003,-0.024l0,-0.607c0,-0.009 0.001,-0.016 0.004,-0.023c0.002,-0.007 0.007,-0.012 0.014,-0.016c0.007,-0.004 0.016,-0.006 0.028,-0.006l0.218,0c0.032,0 0.061,0.005 0.088,0.015c0.027,0.01 0.051,0.025 0.071,0.044c0.02,0.02 0.036,0.043 0.048,0.071c0.011,0.028 0.017,0.06 0.017,0.097c0,0.036 -0.006,0.068 -0.017,0.096c-0.011,0.028 -0.027,0.051 -0.048,0.071c-0.021,0.019 -0.044,0.034 -0.072,0.044c-0.027,0.01 -0.057,0.015 -0.089,0.015l-0.172,0l0,0.201c0,0.009 -0.001,0.017 -0.003,0.024c-0.002,0.007 -0.006,0.012 -0.013,0.016c-0.006,0.004 -0.016,0.006 -0.03,0.006Zm0.046,-0.337l0.173,0c0.027,0 0.05,-0.005 0.07,-0.016c0.02,-0.01 0.036,-0.026 0.047,-0.046c0.011,-0.02 0.017,-0.045 0.017,-0.074c0,-0.028 -0.005,-0.052 -0.016,-0.072c-0.011,-0.02 -0.027,-0.035 -0.047,-0.046c-0.02,-0.011 -0.044,-0.016 -0.072,-0.016l-0.172,0l0,0.271Z" style="fill:#fff;fill-rule:nonzero;"/></g><g transform="matrix(144,0,0,144,104.544,584.708894)"><path d="M0.121,0.011c-0.013,0 -0.023,-0.002 -0.029,-0.006c-0.006,-0.004 -0.011,-0.009 -0.012,-0.016c-0.002,-0.007 -0.003,-0.015 -0.003,-0.024l0,-0.607c0,-0.017 0.003,-0.029 0.01,-0.036c0.007,-0.007 0.019,-0.01 0.037,-0.01l0.402,0c0.009,0 0.017,0.001 0.024,0.003c0.007,0.002 0.012,0.006 0.015,0.013c0.004,0.006 0.005,0.016 0.005,0.03c0,0.013 -0.002,0.023 -0.006,0.029c-0.004,0.006 -0.009,0.011 -0.016,0.012c-0.007,0.002 -0.015,0.003 -0.024,0.003l-0.359,0l0,0.208l0.249,0c0.009,0 0.017,0.001 0.023,0.003c0.006,0.002 0.011,0.006 0.014,0.012c0.003,0.006 0.005,0.015 0.005,0.028c0,0.012 -0.002,0.021 -0.005,0.027c-0.003,0.006 -0.008,0.01 -0.015,0.012c-0.007,0.002 -0.015,0.003 -0.025,0.003l-0.247,0l0,0.226l0.36,-0c0.009,0 0.017,0.001 0.024,0.003c0.007,0.002 0.012,0.006 0.015,0.013c0.004,0.006 0.005,0.016 0.005,0.029c0,0.013 -0.002,0.023 -0.006,0.029c-0.004,0.006 -0.009,0.011 -0.016,0.013c-0.007,0.002 -0.015,0.003 -0.024,0.003l-0.404,0Z" style="fill:#fff;fill-rule:nonzero;"/></g><g transform="matrix(144,0,0,144,194.292,584.708894)"><path d="M0.099,0.01c-0.011,0 -0.02,-0.002 -0.027,-0.007c-0.006,-0.004 -0.011,-0.011 -0.013,-0.019c-0.002,-0.008 -0.003,-0.017 -0.003,-0.028l0,-0.594c0,-0.01 0.001,-0.019 0.004,-0.026c0.002,-0.007 0.007,-0.013 0.013,-0.018c0.006,-0.004 0.015,-0.007 0.027,-0.007l0.279,0c0.038,0 0.071,0.008 0.099,0.025c0.028,0.017 0.05,0.04 0.066,0.068c0.016,0.028 0.024,0.06 0.023,0.094c0.001,0.018 -0.002,0.035 -0.006,0.052c-0.005,0.017 -0.011,0.032 -0.02,0.046c-0.009,0.014 -0.02,0.026 -0.033,0.036c0.018,0.011 0.033,0.026 0.046,0.044c0.013,0.018 0.022,0.038 0.029,0.06c0.007,0.022 0.01,0.045 0.01,0.069c-0.001,0.029 -0.006,0.056 -0.016,0.081c-0.01,0.025 -0.024,0.047 -0.043,0.065c-0.018,0.019 -0.04,0.033 -0.065,0.044c-0.025,0.01 -0.051,0.016 -0.08,0.016l-0.29,0Zm0.047,-0.086l0.233,0c0.026,0 0.049,-0.005 0.067,-0.015c0.019,-0.01 0.033,-0.025 0.043,-0.044c0.01,-0.019 0.015,-0.043 0.015,-0.071c0,-0.024 -0.003,-0.043 -0.01,-0.058c-0.007,-0.015 -0.016,-0.026 -0.027,-0.034c-0.011,-0.008 -0.023,-0.013 -0.036,-0.017c-0.013,-0.003 -0.026,-0.005 -0.038,-0.005c-0.012,-0 -0.023,-0.001 -0.033,-0.001l-0.062,0c-0.013,0 -0.023,-0.003 -0.029,-0.01c-0.006,-0.007 -0.009,-0.017 -0.009,-0.032c0,-0.014 0.003,-0.024 0.01,-0.03c0.007,-0.006 0.016,-0.009 0.029,-0.009l0.061,0c0.01,0 0.022,-0 0.036,-0.001c0.013,-0.001 0.027,-0.003 0.039,-0.008c0.013,-0.005 0.023,-0.014 0.032,-0.027c0.008,-0.013 0.012,-0.031 0.013,-0.055c-0,-0.037 -0.01,-0.065 -0.03,-0.083c-0.02,-0.018 -0.053,-0.027 -0.099,-0.027l-0.205,0l0,0.525Z" style="fill:#fff;fill-rule:nonzero;"/></g><g transform="matrix(144,0,0,144,286.2,584.708894)"><path d="M0.099,0.01c-0.011,0 -0.02,-0.002 -0.027,-0.007c-0.006,-0.004 -0.011,-0.011 -0.013,-0.019c-0.002,-0.008 -0.003,-0.017 -0.003,-0.028l0,-0.594c0,-0.01 0.001,-0.019 0.004,-0.026c0.002,-0.007 0.007,-0.013 0.013,-0.018c0.006,-0.004 0.015,-0.007 0.027,-0.007l0.279,0c0.038,0 0.071,0.008 0.099,0.025c0.028,0.017 0.05,0.04 0.066,0.068c0.016,0.028 0.024,0.06 0.023,0.094c0.001,0.018 -0.002,0.035 -0.006,0.052c-0.005,0.017 -0.011,0.032 -0.02,0.046c-0.009,0.014 -0.02,0.026 -0.033,0.036c0.018,0.011 0.033,0.026 0.046,0.044c0.013,0.018 0.022,0.038 0.029,0.06c0.007,0.022 0.01,0.045 0.01,0.069c-0.001,0.029 -0.006,0.056 -0.016,0.081c-0.01,0.025 -0.024,0.047 -0.043,0.065c-0.018,0.019 -0.04,0.033 -0.065,0.044c-0.025,0.01 -0.051,0.016 -0.08,0.016l-0.29,0Zm0.047,-0.086l0.233,0c0.026,0 0.049,-0.005 0.067,-0.015c0.019,-0.01 0.033,-0.025 0.043,-0.044c0.01,-0.019 0.015,-0.043 0.015,-0.071c0,-0.024 -0.003,-0.043 -0.01,-0.058c-0.007,-0.015 -0.016,-0.026 -0.027,-0.034c-0.011,-0.008 -0.023,-0.013 -0.036,-0.017c-0.013,-0.003 -0.026,-0.005 -0.038,-0.005c-0.012,-0 -0.023,-0.001 -0.033,-0.001l-0.062,0c-0.013,0 -0.023,-0.003 -0.029,-0.01c-0.006,-0.007 -0.009,-0.017 -0.009,-0.032c0,-0.014 0.003,-0.024 0.01,-0.03c0.007,-0.006 0.016,-0.009 0.029,-0.009l0.061,0c0.01,0 0.022,-0 0.036,-0.001c0.013,-0.001 0.027,-0.003 0.039,-0.008c0.013,-0.005 0.023,-0.014 0.032,-0.027c0.008,-0.013 0.012,-0.031 0.013,-0.055c-0,-0.037 -0.01,-0.065 -0.03,-0.083c-0.02,-0.018 -0.053,-0.027 -0.099,-0.027l-0.205,0l0,0.525Z" style="fill:#fff;fill-rule:nonzero;"/></g><g transform="matrix(144,0,0,144,378.108,584.708894)"><path d="M0.112,0.011c-0.013,0 -0.024,-0.002 -0.03,-0.006c-0.007,-0.004 -0.011,-0.009 -0.013,-0.016c-0.002,-0.007 -0.003,-0.015 -0.003,-0.024l0,-0.607c0,-0.01 0.001,-0.018 0.003,-0.025c0.002,-0.007 0.006,-0.012 0.012,-0.016c0.006,-0.004 0.016,-0.006 0.029,-0.006c0.013,0 0.023,0.002 0.029,0.006c0.006,0.004 0.011,0.009 0.013,0.016c0.002,0.007 0.003,0.015 0.003,0.024l0,0.569l0.335,0c0.009,0 0.016,0.001 0.022,0.003c0.006,0.002 0.011,0.006 0.014,0.012c0.003,0.006 0.005,0.015 0.005,0.027c0,0.012 -0.002,0.021 -0.005,0.027c-0.003,0.006 -0.008,0.01 -0.014,0.013c-0.006,0.002 -0.013,0.003 -0.022,0.003l-0.379,0Z" style="fill:#fff;fill-rule:nonzero;"/></g><g transform="matrix(144,0,0,144,440.424,584.708894)"><path d="M0.587,-0.685c0.014,0.01 0.022,0.019 0.023,0.028c0.002,0.009 -0.002,0.019 -0.01,0.031l-0.235,0.357l0,0.235c0,0.009 -0.001,0.017 -0.003,0.024c-0.002,0.007 -0.006,0.012 -0.013,0.016c-0.006,0.004 -0.016,0.006 -0.029,0.006c-0.013,0 -0.023,-0.002 -0.029,-0.006c-0.006,-0.004 -0.011,-0.009 -0.013,-0.016c-0.002,-0.007 -0.003,-0.016 -0.003,-0.025l0,-0.234l-0.236,-0.354c-0.008,-0.012 -0.011,-0.022 -0.009,-0.031c0.002,-0.009 0.01,-0.018 0.024,-0.028c0.01,-0.007 0.019,-0.011 0.026,-0.013c0.007,-0.002 0.013,-0.001 0.019,0.003c0.006,0.004 0.012,0.01 0.017,0.019l0.204,0.321l0.205,-0.321c0.006,-0.009 0.011,-0.015 0.017,-0.018c0.006,-0.004 0.012,-0.005 0.02,-0.004c0.007,0.001 0.016,0.005 0.026,0.011Z" style="fill:#fff;fill-rule:nonzero;"/></g><g transform="matrix(144,0,0,144,532.296,584.708894)"></g><g transform="matrix(48,0,0,48,143.570017,657.056)"><path d="M0.392,0.015c-0.05,0 -0.096,-0.009 -0.138,-0.027c-0.042,-0.018 -0.078,-0.043 -0.109,-0.076c-0.031,-0.033 -0.054,-0.071 -0.071,-0.116c-0.017,-0.045 -0.025,-0.094 -0.025,-0.147c0,-0.051 0.009,-0.097 0.026,-0.139c0.017,-0.042 0.041,-0.079 0.073,-0.11c0.031,-0.031 0.069,-0.055 0.112,-0.072c0.043,-0.017 0.09,-0.026 0.142,-0.027c0.021,0 0.043,0.002 0.066,0.006c0.023,0.004 0.045,0.01 0.066,0.017c0.021,0.008 0.04,0.017 0.056,0.028c0.012,0.008 0.023,0.016 0.032,0.025c0.009,0.008 0.014,0.018 0.014,0.029c0.001,0.006 -0,0.012 -0.003,0.019c-0.003,0.007 -0.007,0.014 -0.012,0.021c-0.008,0.011 -0.016,0.02 -0.024,0.025c-0.008,0.005 -0.016,0.008 -0.024,0.008c-0.004,0 -0.01,-0.002 -0.017,-0.005c-0.007,-0.003 -0.016,-0.009 -0.027,-0.016c-0.009,-0.006 -0.02,-0.011 -0.034,-0.016c-0.014,-0.005 -0.029,-0.01 -0.046,-0.013c-0.017,-0.004 -0.034,-0.005 -0.052,-0.005c-0.045,0 -0.084,0.009 -0.118,0.028c-0.034,0.019 -0.06,0.045 -0.079,0.08c-0.019,0.034 -0.028,0.075 -0.029,0.12c0,0.047 0.01,0.089 0.029,0.125c0.019,0.036 0.046,0.064 0.079,0.084c0.034,0.02 0.073,0.031 0.117,0.031c0.015,0 0.031,-0.001 0.046,-0.003c0.016,-0.002 0.031,-0.005 0.046,-0.009c0.015,-0.004 0.029,-0.009 0.041,-0.015l0,-0.157l-0.141,0c-0.01,0 -0.018,-0.001 -0.026,-0.003c-0.008,-0.002 -0.014,-0.007 -0.018,-0.014c-0.004,-0.008 -0.006,-0.02 -0.007,-0.036c0,-0.017 0.002,-0.029 0.007,-0.037c0.005,-0.007 0.011,-0.012 0.019,-0.014c0.008,-0.002 0.016,-0.003 0.026,-0.003l0.204,0c0.018,0 0.03,0.004 0.038,0.01c0.008,0.006 0.013,0.014 0.016,0.023c0.003,0.009 0.004,0.019 0.004,0.03l0,0.233c0,0.013 -0.007,0.027 -0.019,0.041c-0.013,0.014 -0.031,0.027 -0.055,0.039c-0.016,0.008 -0.033,0.015 -0.053,0.021c-0.02,0.006 -0.041,0.01 -0.063,0.014c-0.022,0.003 -0.045,0.005 -0.069,0.005Z" style="fill:#fff;fill-rule:nonzero;"/></g><g transform="matrix(48,0,0,48,177.722017,657.056)"></g><g transform="matrix(48,0,0,48,189.602017,657.056)"></g><g transform="matrix(48,0,0,48,200.762017,657.056)"><path d="M0.685,-0.075c0.007,0.013 0.01,0.024 0.011,0.034c0.001,0.01 -0.002,0.018 -0.009,0.025c-0.006,0.007 -0.016,0.014 -0.03,0.021c-0.021,0.01 -0.038,0.013 -0.05,0.008c-0.012,-0.005 -0.023,-0.018 -0.033,-0.039l-0.223,-0.471l-0.221,0.47c-0.01,0.021 -0.021,0.033 -0.033,0.038c-0.012,0.005 -0.028,0.002 -0.05,-0.008c-0.014,-0.006 -0.024,-0.013 -0.03,-0.021c-0.006,-0.008 -0.009,-0.016 -0.008,-0.027c0.001,-0.01 0.005,-0.023 0.012,-0.037l0.275,-0.573c0.005,-0.011 0.013,-0.019 0.024,-0.026c0.01,-0.007 0.021,-0.01 0.032,-0.01c0.008,0 0.015,0.001 0.022,0.004c0.007,0.003 0.013,0.007 0.019,0.012c0.006,0.005 0.01,0.012 0.014,0.02l0.277,0.578Zm-0.511,-0.097l0.048,-0.103l0.261,0l0.047,0.103l-0.357,0Z" style="fill:#fff;fill-rule:nonzero;"/></g><g transform="matrix(48,0,0,48,234.650017,657.056)"></g><g transform="matrix(48,0,0,48,246.530017,657.056)"></g><g transform="matrix(48,0,0,48,258.410017,657.056)"><path d="M0.115,0.009c-0.018,0 -0.031,-0.003 -0.039,-0.008c-0.009,-0.005 -0.014,-0.013 -0.016,-0.022c-0.003,-0.009 -0.004,-0.02 -0.004,-0.031l0,-0.577c0,-0.011 0.001,-0.02 0.004,-0.029c0.002,-0.009 0.008,-0.016 0.017,-0.022c0.009,-0.006 0.022,-0.008 0.041,-0.008c0.014,0 0.024,0.001 0.031,0.002c0.007,0.002 0.013,0.004 0.017,0.007c0.004,0.003 0.008,0.007 0.012,0.012l0.243,0.341l-0.023,0l0.245,-0.343c0.005,-0.005 0.009,-0.009 0.014,-0.012c0.005,-0.003 0.011,-0.005 0.018,-0.006c0.007,-0.001 0.017,-0.002 0.029,-0.002c0.018,0 0.032,0.003 0.04,0.008c0.009,0.006 0.014,0.013 0.016,0.023c0.003,0.009 0.004,0.019 0.004,0.03l0,0.577c-0,0.01 -0.001,0.02 -0.004,0.029c-0.002,0.009 -0.008,0.017 -0.017,0.022c-0.009,0.005 -0.022,0.008 -0.041,0.008c-0.018,0 -0.031,-0.003 -0.04,-0.009c-0.008,-0.006 -0.014,-0.013 -0.017,-0.023c-0.003,-0.01 -0.004,-0.02 -0.004,-0.03l0,-0.429l-0.181,0.263c-0.002,0.003 -0.006,0.007 -0.01,0.011c-0.004,0.004 -0.009,0.008 -0.016,0.011c-0.007,0.003 -0.016,0.005 -0.026,0.005c-0.011,0 -0.02,-0.002 -0.026,-0.005c-0.007,-0.003 -0.012,-0.007 -0.016,-0.011c-0.004,-0.004 -0.007,-0.008 -0.011,-0.012l-0.18,-0.261l0,0.43c0,0.01 -0.001,0.02 -0.004,0.029c-0.003,0.009 -0.008,0.017 -0.017,0.022c-0.008,0.005 -0.022,0.008 -0.041,0.008Z" style="fill:#fff;fill-rule:nonzero;"/></g><g transform="matrix(48,0,0,48,297.746017,657.056)"></g><g transform="matrix(48,0,0,48,309.626017,657.056)"></g><g transform="matrix(48,0,0,48,321.506017,657.056)"><path d="M0.123,0.01c-0.019,0 -0.032,-0.003 -0.041,-0.008c-0.009,-0.005 -0.014,-0.013 -0.016,-0.022c-0.002,-0.01 -0.003,-0.02 -0.003,-0.031l0,-0.577c0,-0.023 0.005,-0.039 0.014,-0.047c0.009,-0.009 0.026,-0.013 0.049,-0.013l0.39,0c0.011,0 0.021,0.001 0.031,0.004c0.009,0.002 0.016,0.008 0.021,0.016c0.005,0.008 0.008,0.022 0.008,0.042c0,0.019 -0.003,0.032 -0.008,0.041c-0.006,0.008 -0.013,0.014 -0.022,0.016c-0.009,0.002 -0.019,0.003 -0.031,0.003l-0.331,0l0,0.168l0.228,0c0.011,0 0.021,0.001 0.029,0.003c0.008,0.002 0.015,0.007 0.019,0.014c0.005,0.008 0.007,0.02 0.007,0.037c0,0.016 -0.002,0.028 -0.007,0.036c-0.005,0.008 -0.011,0.012 -0.02,0.014c-0.009,0.002 -0.019,0.003 -0.03,0.003l-0.226,0l0,0.18l0.332,-0c0.011,0 0.021,0.001 0.031,0.004c0.009,0.002 0.016,0.008 0.021,0.016c0.005,0.008 0.008,0.022 0.008,0.041c0,0.019 -0.003,0.032 -0.008,0.041c-0.006,0.009 -0.013,0.014 -0.022,0.016c-0.009,0.002 -0.019,0.004 -0.031,0.004l-0.392,0Z" style="fill:#fff;fill-rule:nonzero;"/></g><g transform="matrix(48,0,0,48,351.098017,657.056)"></g><g transform="matrix(48,0,0,48,362.978017,657.056)"></g><g transform="matrix(48,0,0,48,374.858017,657.056)"><path d="M0.271,0.019c-0.03,0 -0.058,-0.004 -0.082,-0.011c-0.024,-0.007 -0.046,-0.017 -0.064,-0.028c-0.018,-0.011 -0.034,-0.023 -0.046,-0.035c-0.013,-0.012 -0.022,-0.023 -0.028,-0.033c-0.009,-0.012 -0.015,-0.023 -0.017,-0.032c-0.003,-0.009 -0.002,-0.018 0.003,-0.027c0.004,-0.009 0.013,-0.019 0.025,-0.029c0.012,-0.01 0.023,-0.016 0.034,-0.016c0.01,-0 0.02,0.003 0.03,0.01c0.01,0.007 0.019,0.016 0.028,0.027c0.016,0.021 0.034,0.037 0.054,0.045c0.02,0.009 0.04,0.013 0.06,0.013c0.026,-0 0.049,-0.003 0.068,-0.01c0.019,-0.007 0.034,-0.017 0.045,-0.031c0.011,-0.014 0.016,-0.032 0.016,-0.054c0,-0.018 -0.005,-0.033 -0.016,-0.045c-0.011,-0.012 -0.025,-0.022 -0.044,-0.03c-0.018,-0.008 -0.038,-0.016 -0.06,-0.023c-0.022,-0.007 -0.045,-0.015 -0.067,-0.023c-0.016,-0.006 -0.032,-0.012 -0.048,-0.02c-0.016,-0.008 -0.031,-0.017 -0.044,-0.026c-0.014,-0.01 -0.026,-0.022 -0.036,-0.036c-0.01,-0.014 -0.018,-0.029 -0.024,-0.047c-0.006,-0.018 -0.009,-0.039 -0.009,-0.063c0,-0.038 0.009,-0.072 0.028,-0.101c0.019,-0.029 0.045,-0.052 0.078,-0.069c0.033,-0.017 0.071,-0.025 0.114,-0.025c0.027,0 0.052,0.002 0.074,0.007c0.022,0.005 0.04,0.011 0.056,0.019c0.016,0.007 0.029,0.015 0.039,0.023c0.01,0.008 0.018,0.014 0.022,0.02c0.015,0.015 0.024,0.028 0.025,0.038c0.002,0.011 -0.004,0.024 -0.018,0.042c-0.014,0.018 -0.028,0.027 -0.041,0.029c-0.013,0.002 -0.028,-0.004 -0.044,-0.016c-0.01,-0.011 -0.021,-0.02 -0.032,-0.027c-0.011,-0.007 -0.023,-0.012 -0.036,-0.015c-0.013,-0.003 -0.029,-0.005 -0.047,-0.005c-0.014,0 -0.027,0.002 -0.039,0.006c-0.012,0.004 -0.023,0.009 -0.032,0.016c-0.009,0.007 -0.016,0.016 -0.021,0.026c-0.005,0.01 -0.008,0.021 -0.008,0.034c0,0.017 0.005,0.031 0.015,0.042c0.01,0.011 0.023,0.02 0.04,0.027c0.017,0.007 0.035,0.014 0.056,0.02c0.02,0.006 0.042,0.012 0.063,0.019c0.022,0.007 0.044,0.015 0.065,0.026c0.021,0.01 0.04,0.023 0.057,0.037c0.017,0.015 0.03,0.034 0.04,0.056c0.01,0.022 0.015,0.05 0.015,0.082c0,0.037 -0.007,0.069 -0.021,0.096c-0.014,0.027 -0.033,0.049 -0.057,0.067c-0.024,0.017 -0.051,0.03 -0.08,0.039c-0.029,0.009 -0.059,0.013 -0.089,0.013Z" style="fill:#fff;fill-rule:nonzero;"/></g><g transform="matrix(48,0,0,48,401.258017,657.056)"></g></svg>